<?xml version="1.0" standalone="no"?>
<!DOCTYPE svg PUBLIC "-//W3C//DTD SVG 20010904//EN"
 "http://www.w3.org/TR/2001/REC-SVG-20010904/DTD/svg10.dtd">
<svg version="1.0" xmlns="http://www.w3.org/2000/svg"
 width="288.000000pt" height="288.000000pt" viewBox="0 0 288.000000 288.000000"
 preserveAspectRatio="xMidYMid meet">
<metadata>
Created by potrace 1.14, written by Peter Selinger 2001-2017
</metadata>
<g transform="translate(0.000000,288.000000) scale(0.100000,-0.100000)"
fill="#000000" stroke="none">
<path d="M290 2872 c0 -4 -12 -9 -26 -10 -35 -3 -111 -49 -156 -95 -45 -46
-90 -123 -90 -154 0 -13 -4 -23 -9 -23 -5 0 -9 -500 -9 -1150 0 -632 4 -1150
8 -1150 4 0 9 -11 10 -24 1 -14 11 -42 23 -63 50 -89 121 -150 216 -183 56
-20 79 -20 1195 -20 626 0 1138 4 1138 8 0 4 11 9 23 10 51 4 147 71 193 135
37 51 67 121 57 131 -4 3 -1 6 5 6 9 0 12 280 12 1150 0 633 -4 1150 -8 1150
-4 0 -9 11 -10 24 -1 14 -11 42 -23 63 -50 89 -121 150 -216 183 -56 20 -79
20 -1195 20 -626 0 -1138 -4 -1138 -8z"/>
</g>
</svg>
